<mxfile host="app.diagrams.net" modified="2024-02-07T09:43:45.968Z" agent="Mozilla/5.0 (Windows NT 10.0; Win64; x64) AppleWebKit/537.36 (KHTML, like Gecko) Chrome/120.0.0.0 Safari/537.36 OPR/106.0.0.0" version="23.1.1" etag="wPBmMHi6lXTnsd8QV7xp" type="github">
  <diagram name="Page-1" id="4g7y4cGaW3o4ebENCMGD">
    <mxGraphModel>
      <root>
        <mxCell id="0" />
        <mxCell id="1" parent="0" />
      </root>
    </mxGraphModel>
  </diagram>
</mxfile>
